<mxfile host="app.diagrams.net" modified="2022-05-23T12:44:00.282Z" agent="5.0 (Macintosh; Intel Mac OS X 10_14_5) AppleWebKit/537.36 (KHTML, like Gecko) Chrome/101.0.4951.64 Safari/537.36" etag="HKdPp0yFdOGAEECbVBA5" version="17.5.0" type="github">
  <diagram id="icDhHl7vQ2tlBuYMG8xw" name="Page-1">
    <mxGraphModel dx="1937" dy="1566" grid="1" gridSize="10" guides="1" tooltips="1" connect="1" arrows="1" fold="1" page="1" pageScale="1" pageWidth="827" pageHeight="1169" math="0" shadow="0">
      <root>
        <mxCell id="0" />
        <mxCell id="1" parent="0" />
        <mxCell id="DSRnUuk4SivCTEABRJ1O-3" value="" style="shape=ext;double=1;rounded=1;whiteSpace=wrap;html=1;labelBackgroundColor=default;fillColor=#dae8fc;strokeColor=#6c8ebf;shadow=1;" parent="1" vertex="1">
          <mxGeometry x="-150" y="-340" width="260" height="190" as="geometry" />
        </mxCell>
        <mxCell id="DSRnUuk4SivCTEABRJ1O-4" value="Scanner" style="rounded=1;whiteSpace=wrap;html=1;labelBackgroundColor=default;shadow=1;" parent="1" vertex="1">
          <mxGeometry x="10" y="-285" width="90" height="50" as="geometry" />
        </mxCell>
        <mxCell id="DSRnUuk4SivCTEABRJ1O-15" value="" style="shape=ext;double=1;rounded=1;whiteSpace=wrap;html=1;labelBackgroundColor=default;fillColor=#dae8fc;strokeColor=#6c8ebf;shadow=1;" parent="1" vertex="1">
          <mxGeometry x="260" y="-340" width="260" height="190" as="geometry" />
        </mxCell>
        <mxCell id="DSRnUuk4SivCTEABRJ1O-16" value="Web Server" style="rounded=1;whiteSpace=wrap;html=1;labelBackgroundColor=default;shadow=1;" parent="1" vertex="1">
          <mxGeometry x="350" y="-330" width="90" height="50" as="geometry" />
        </mxCell>
        <mxCell id="DSRnUuk4SivCTEABRJ1O-17" value="Computer Engine" style="rounded=1;whiteSpace=wrap;html=1;labelBackgroundColor=default;shadow=1;" parent="1" vertex="1">
          <mxGeometry x="280" y="-240" width="90" height="50" as="geometry" />
        </mxCell>
        <mxCell id="DSRnUuk4SivCTEABRJ1O-18" value="Search Server" style="rounded=1;whiteSpace=wrap;html=1;labelBackgroundColor=default;shadow=1;" parent="1" vertex="1">
          <mxGeometry x="420" y="-240" width="90" height="50" as="geometry" />
        </mxCell>
        <mxCell id="DSRnUuk4SivCTEABRJ1O-21" value="Source Files" style="strokeWidth=2;html=1;shape=mxgraph.flowchart.multi-document;whiteSpace=wrap;labelBackgroundColor=default;shadow=1;" parent="1" vertex="1">
          <mxGeometry x="-130" y="-220" width="88" height="60" as="geometry" />
        </mxCell>
        <mxCell id="DSRnUuk4SivCTEABRJ1O-24" value="" style="curved=1;endArrow=classic;html=1;rounded=0;labelBackgroundColor=default;shadow=1;" parent="1" edge="1">
          <mxGeometry width="50" height="50" relative="1" as="geometry">
            <mxPoint x="-43" y="-200" as="sourcePoint" />
            <mxPoint x="7" y="-250" as="targetPoint" />
            <Array as="points">
              <mxPoint x="7" y="-200" />
              <mxPoint x="-43" y="-250" />
            </Array>
          </mxGeometry>
        </mxCell>
        <mxCell id="DSRnUuk4SivCTEABRJ1O-29" value="&lt;meta charset=&quot;utf-8&quot;&gt;&lt;span style=&quot;color: rgb(0, 0, 0); font-family: helvetica; font-size: 12px; font-style: normal; font-weight: 400; letter-spacing: normal; text-align: center; text-indent: 0px; text-transform: none; word-spacing: 0px; display: inline; float: none;&quot;&gt;Analysis Report&lt;/span&gt;" style="whiteSpace=wrap;html=1;shape=mxgraph.basic.document;labelBackgroundColor=default;fillColor=#dae8fc;strokeColor=#6c8ebf;shadow=1;" parent="1" vertex="1">
          <mxGeometry x="140" y="-225" width="100" height="35" as="geometry" />
        </mxCell>
        <mxCell id="DSRnUuk4SivCTEABRJ1O-35" value="" style="endArrow=classic;html=1;rounded=0;entryX=0;entryY=0.5;entryDx=0;entryDy=0;exitX=1;exitY=0.5;exitDx=0;exitDy=0;labelBackgroundColor=default;shadow=1;" parent="1" source="DSRnUuk4SivCTEABRJ1O-3" target="DSRnUuk4SivCTEABRJ1O-15" edge="1">
          <mxGeometry relative="1" as="geometry">
            <mxPoint x="110" y="-270" as="sourcePoint" />
            <mxPoint x="210" y="-270" as="targetPoint" />
          </mxGeometry>
        </mxCell>
        <mxCell id="DSRnUuk4SivCTEABRJ1O-36" value="Submit" style="edgeLabel;resizable=0;html=1;align=center;verticalAlign=middle;labelBackgroundColor=default;shadow=1;" parent="DSRnUuk4SivCTEABRJ1O-35" connectable="0" vertex="1">
          <mxGeometry relative="1" as="geometry" />
        </mxCell>
        <mxCell id="DSRnUuk4SivCTEABRJ1O-40" value="" style="endArrow=classic;html=1;rounded=0;exitX=0.25;exitY=1;exitDx=0;exitDy=0;entryX=0.5;entryY=0;entryDx=0;entryDy=0;labelBackgroundColor=default;shadow=1;" parent="1" source="DSRnUuk4SivCTEABRJ1O-16" target="DSRnUuk4SivCTEABRJ1O-17" edge="1">
          <mxGeometry width="50" height="50" relative="1" as="geometry">
            <mxPoint x="270" y="-200" as="sourcePoint" />
            <mxPoint x="320" y="-250" as="targetPoint" />
          </mxGeometry>
        </mxCell>
        <mxCell id="DSRnUuk4SivCTEABRJ1O-41" value="" style="endArrow=classic;html=1;rounded=0;exitX=0.5;exitY=0;exitDx=0;exitDy=0;entryX=0.587;entryY=0.984;entryDx=0;entryDy=0;entryPerimeter=0;labelBackgroundColor=default;shadow=1;" parent="1" source="DSRnUuk4SivCTEABRJ1O-18" target="DSRnUuk4SivCTEABRJ1O-16" edge="1">
          <mxGeometry width="50" height="50" relative="1" as="geometry">
            <mxPoint x="382.5" y="-270" as="sourcePoint" />
            <mxPoint x="335" y="-230" as="targetPoint" />
          </mxGeometry>
        </mxCell>
        <mxCell id="DSRnUuk4SivCTEABRJ1O-42" value="" style="shape=ext;double=1;rounded=1;whiteSpace=wrap;html=1;labelBackgroundColor=default;fillColor=#dae8fc;strokeColor=#6c8ebf;shadow=1;" parent="1" vertex="1">
          <mxGeometry x="265" y="-120" width="260" height="90" as="geometry" />
        </mxCell>
        <mxCell id="DSRnUuk4SivCTEABRJ1O-43" value="RDS" style="shape=datastore;whiteSpace=wrap;html=1;labelBackgroundColor=default;shadow=1;" parent="1" vertex="1">
          <mxGeometry x="300" y="-90" width="60" height="45" as="geometry" />
        </mxCell>
        <mxCell id="DSRnUuk4SivCTEABRJ1O-44" value="ES" style="shape=datastore;whiteSpace=wrap;html=1;labelBackgroundColor=default;shadow=1;" parent="1" vertex="1">
          <mxGeometry x="410" y="-90" width="60" height="45" as="geometry" />
        </mxCell>
        <mxCell id="DSRnUuk4SivCTEABRJ1O-46" value="" style="endArrow=classic;html=1;rounded=0;exitX=0.5;exitY=1;exitDx=0;exitDy=0;entryX=0.411;entryY=-0.027;entryDx=0;entryDy=0;entryPerimeter=0;labelBackgroundColor=default;shadow=1;" parent="1" source="DSRnUuk4SivCTEABRJ1O-17" target="DSRnUuk4SivCTEABRJ1O-42" edge="1">
          <mxGeometry width="50" height="50" relative="1" as="geometry">
            <mxPoint x="270" y="-140" as="sourcePoint" />
            <mxPoint x="350" y="-130" as="targetPoint" />
          </mxGeometry>
        </mxCell>
        <mxCell id="DSRnUuk4SivCTEABRJ1O-47" value="" style="endArrow=classic;html=1;rounded=0;entryX=0.5;entryY=1;entryDx=0;entryDy=0;exitX=0.535;exitY=-0.04;exitDx=0;exitDy=0;exitPerimeter=0;labelBackgroundColor=default;shadow=1;" parent="1" source="DSRnUuk4SivCTEABRJ1O-42" target="DSRnUuk4SivCTEABRJ1O-18" edge="1">
          <mxGeometry width="50" height="50" relative="1" as="geometry">
            <mxPoint x="400" y="-130" as="sourcePoint" />
            <mxPoint x="360" y="-120" as="targetPoint" />
          </mxGeometry>
        </mxCell>
        <mxCell id="DSRnUuk4SivCTEABRJ1O-50" value="" style="shape=actor;whiteSpace=wrap;html=1;labelBackgroundColor=default;" parent="1" vertex="1">
          <mxGeometry x="-560" y="-285" width="40" height="60" as="geometry" />
        </mxCell>
        <mxCell id="DSRnUuk4SivCTEABRJ1O-55" value="" style="endArrow=classic;html=1;rounded=0;labelBackgroundColor=default;shadow=1;" parent="1" edge="1">
          <mxGeometry relative="1" as="geometry">
            <mxPoint x="-520" y="-245" as="sourcePoint" />
            <mxPoint x="-413" y="-245.5" as="targetPoint" />
          </mxGeometry>
        </mxCell>
        <mxCell id="DSRnUuk4SivCTEABRJ1O-56" value="提交代码" style="edgeLabel;resizable=0;html=1;align=center;verticalAlign=middle;labelBackgroundColor=default;shadow=1;" parent="DSRnUuk4SivCTEABRJ1O-55" connectable="0" vertex="1">
          <mxGeometry relative="1" as="geometry" />
        </mxCell>
        <mxCell id="DSRnUuk4SivCTEABRJ1O-62" value="CI流水线" style="shape=ext;double=1;rounded=1;whiteSpace=wrap;html=1;labelBackgroundColor=default;fillColor=#d5e8d4;strokeColor=#82b366;shadow=1;" parent="1" vertex="1">
          <mxGeometry x="-413.5" y="-290" width="160" height="90" as="geometry" />
        </mxCell>
        <mxCell id="DSRnUuk4SivCTEABRJ1O-64" value="" style="endArrow=classic;html=1;rounded=0;labelBackgroundColor=default;shadow=1;" parent="1" edge="1">
          <mxGeometry relative="1" as="geometry">
            <mxPoint x="-250" y="-250" as="sourcePoint" />
            <mxPoint x="-150" y="-250" as="targetPoint" />
          </mxGeometry>
        </mxCell>
        <mxCell id="DSRnUuk4SivCTEABRJ1O-65" value="Trigger&amp;nbsp;" style="edgeLabel;resizable=0;html=1;align=center;verticalAlign=middle;labelBackgroundColor=default;shadow=1;" parent="DSRnUuk4SivCTEABRJ1O-64" connectable="0" vertex="1">
          <mxGeometry relative="1" as="geometry" />
        </mxCell>
        <mxCell id="DSRnUuk4SivCTEABRJ1O-68" value="SCA Scanner" style="text;html=1;align=center;verticalAlign=middle;resizable=0;points=[];autosize=1;strokeColor=none;fillColor=none;labelBackgroundColor=default;shadow=1;" parent="1" vertex="1">
          <mxGeometry x="-132" y="-330" width="90" height="20" as="geometry" />
        </mxCell>
        <mxCell id="DSRnUuk4SivCTEABRJ1O-69" value="SCA Server" style="text;html=1;align=center;verticalAlign=middle;resizable=0;points=[];autosize=1;strokeColor=none;fillColor=none;labelBackgroundColor=default;shadow=1;" parent="1" vertex="1">
          <mxGeometry x="260" y="-330" width="80" height="20" as="geometry" />
        </mxCell>
      </root>
    </mxGraphModel>
  </diagram>
</mxfile>
